<?xml version="1.0" encoding="UTF-8"?><svg id="Layer_1" xmlns="http://www.w3.org/2000/svg" viewBox="0 0 59.53 28"><path d="m9.46,9.09h3.99v5.44h-4v13.48h-5.44v-13.48H0v-5.44h4.01C4.2,4.19,8.13.21,13.07.02l.38-.02v5.42l-.33.03c-2.14.18-3.51,1.57-3.66,3.64h0Z" fill-rule="evenodd" fill="#ffffff" stroke-width="0"/><path d="m55.53,9.09h4v5.44h-4v4.02c0,2.27,1.4,3.81,3.67,4l.33.03v5.42l-.38-.02c-5.06-.2-9.07-4.37-9.07-9.44V5.08h5.44v4h0Z" fill-rule="evenodd" fill="#ffffff" stroke-width="0"/><polygon points="16.99 14.53 14.73 14.53 14.73 9.09 22.44 9.09 22.44 28 16.99 28 16.99 14.53 16.99 14.53" fill-rule="evenodd" fill="#ffffff" stroke-width="0"/><path d="m19.71.33c2.06,0,3.73,1.67,3.73,3.73s-1.67,3.73-3.73,3.73-3.73-1.67-3.73-3.73,1.67-3.73,3.73-3.73h0Z" fill-rule="evenodd" fill="#ffffff" stroke-width="0"/><path d="m30.46,22.56h12.54c.36,0,.64-.29.64-.64s-.29-.64-.64-.64h-2.49c-3.36,0-6.09-2.73-6.09-6.09s2.73-6.09,6.09-6.09h8.22v5.45h-8.22c-.36,0-.64.29-.64.64s.29.64.64.64h2.49c3.36,0,6.09,2.73,6.09,6.09s-2.73,6.09-6.09,6.09h-12.54s0-5.45,0-5.45h0Z" fill-rule="evenodd" fill="#ffffff" stroke-width="0"/><path d="m30.18,14.53h-.36c-.36,0-.64.29-.64.64v12.83h-5.45v-12.83c0-3.36,2.73-6.09,6.09-6.09h6.52c-1.77,1.22-2.99,3.19-3.18,5.45h-2.97Z" fill-rule="evenodd" fill="#ffffff" stroke-width="0"/></svg>